<?xml version="1.0" standalone="no"?>
<!DOCTYPE svg PUBLIC "-//W3C//DTD SVG 20010904//EN"
 "http://www.w3.org/TR/2001/REC-SVG-20010904/DTD/svg10.dtd">
<svg version="1.0" xmlns="http://www.w3.org/2000/svg"
 width="512.000000pt" height="512.000000pt" viewBox="0 0 512.000000 512.000000"
 preserveAspectRatio="xMidYMid meet">

<g transform="translate(0.000000,512.000000) scale(0.100000,-0.100000)"
fill="#000000" stroke="none">
<path d="M2440 4964 c-487 -45 -900 -367 -1055 -823 -47 -139 -60 -225 -59
-396 1 -184 19 -285 80 -438 198 -500 708 -817 1234 -767 296 28 541 142 750
350 236 233 360 531 360 860 0 654 -510 1185 -1165 1213 -55 3 -120 3 -145 1z
m243 -215 c391 -58 713 -338 822 -716 159 -546 -162 -1113 -713 -1260 -84 -23
-118 -26 -252 -27 -191 -1 -281 19 -445 99 -261 127 -445 344 -532 630 -25 84
-27 102 -27 275 0 173 2 191 27 275 100 325 321 561 637 679 131 49 332 68
483 45z"/>
<path d="M989 2095 c-340 -62 -636 -316 -747 -640 -59 -173 -68 -399 -23 -570
94 -357 386 -633 751 -712 80 -17 169 -18 1575 -18 1194 0 1502 3 1550 13 320
70 564 254 699 527 85 172 122 389 97 566 -59 398 -332 707 -726 820 l-80 23
-1510 2 c-1252 2 -1523 0 -1586 -11z m2161 -960 l0 -775 -1029 0 c-1111 0
-1108 0 -1241 53 -100 41 -170 88 -256 172 -164 161 -246 375 -230 595 27 374
310 675 676 719 36 5 518 9 1073 10 l1007 1 0 -775z m480 0 l0 -775 -135 0
-135 0 0 775 0 775 135 0 135 0 0 -775z m474 745 c150 -38 260 -104 371 -222
83 -88 128 -161 166 -268 177 -501 -195 -1030 -726 -1030 l-75 0 0 776 0 777
96 -7 c53 -4 128 -16 168 -26z"/>
</g>
</svg>
